<?xml version="1.0" encoding="UTF-8"?>
<svg xmlns="http://www.w3.org/2000/svg" xmlns:xlink="http://www.w3.org/1999/xlink" width="16px" height="16px" viewBox="0 0 16 16" version="1.1">
<g id="surface1">
<path style=" stroke:none;fill-rule:nonzero;fill:rgb(0%,0%,0%);fill-opacity:1;" d="M 5.617188 1.113281 C 2.519531 1.113281 0.828125 3.878906 0.828125 5.777344 C 0.828125 7.308594 2.296875 7.976562 3.664062 7.976562 L 3.660156 7.972656 C 6.488281 7.972656 8.449219 5.40625 8.449219 3.308594 C 8.449219 1.78125 6.996094 1.113281 5.617188 1.113281 Z M 13.171875 1.113281 C 10.070312 1.113281 8.382812 3.878906 8.382812 5.777344 C 8.382812 7.308594 9.847656 7.976562 11.214844 7.976562 L 11.210938 7.972656 C 14.039062 7.972656 16 5.40625 16 3.308594 C 16 1.78125 14.546875 1.113281 13.171875 1.113281 Z M 9.449219 9.679688 L 11.070312 10.902344 C 9.625 12.28125 6.988281 13.253906 4.835938 13.015625 C 2.808594 12.785156 1.039062 11.53125 0.152344 9.695312 L 0 9.695312 C 0.554688 12.558594 2.972656 14.683594 5.886719 14.867188 C 8.429688 15.027344 10.765625 14.261719 12.515625 12.78125 L 12.515625 12.785156 L 13.234375 14.777344 L 14.269531 9.695312 Z M 9.449219 9.679688 "/>
</g>
</svg>
